<?xml version="1.0" standalone="no"?>
<!DOCTYPE svg PUBLIC "-//W3C//DTD SVG 20010904//EN"
 "http://www.w3.org/TR/2001/REC-SVG-20010904/DTD/svg10.dtd">
<svg version="1.0" xmlns="http://www.w3.org/2000/svg"
 width="500.000000pt" height="500.000000pt" viewBox="0 0 500.000000 500.000000"
 preserveAspectRatio="xMidYMid meet">
<metadata>
Created by potrace 1.11, written by Peter Selinger 2001-2013
</metadata>
<g transform="translate(0.000000,500.000000) scale(0.100000,-0.100000)"
fill="#000000" stroke="none">
<path d="M0 2500 l0 -2500 2500 0 2500 0 0 2500 0 2500 -2500 0 -2500 0 0
-2500z m500 2000 l0 -250 1625 0 1625 0 0 -125 0 -125 -1625 0 -1625 0 0
-1625 0 -1625 -125 0 -125 0 0 2000 0 2000 125 0 125 0 0 -250z m4250 125 l0
-125 -250 0 -250 0 0 -1625 0 -1625 -125 0 -125 0 0 1625 0 1625 -1625 0
-1625 0 0 125 0 125 2000 0 2000 0 0 -125z m0 -2375 l0 -2000 -125 0 -125 0 0
250 0 250 -1625 0 -1625 0 0 125 0 125 1625 0 1625 0 0 1625 0 1625 125 0 125
0 0 -2000z m-3750 -125 l0 -1625 1625 0 1625 0 0 -125 0 -125 -2000 0 -2000 0
0 125 0 125 250 0 250 0 0 1625 0 1625 125 0 125 0 0 -1625z m500 625 l0
-1000 -125 0 -125 0 0 1000 0 1000 125 0 125 0 0 -1000z m2250 875 l0 -125
-1000 0 -1000 0 0 125 0 125 1000 0 1000 0 0 -125z m0 -1375 l0 -1000 -125 0
-125 0 0 1000 0 1000 125 0 125 0 0 -1000z m-500 -875 l0 -125 -1000 0 -1000
0 0 125 0 125 1000 0 1000 0 0 -125z"/>
</g>
</svg>
